<svg t="1707254903186" class="icon" viewBox="0 0 1024 1024" version="1.1" xmlns="http://www.w3.org/2000/svg" p-id="1544" width="200" height="200"><path d="M112 917.333333h464a5.333333 5.333333 0 0 0 5.333333-5.333333V112a5.333333 5.333333 0 0 0-5.333333-5.333333H112a5.333333 5.333333 0 0 0-5.333333 5.333333v800a5.333333 5.333333 0 0 0 5.333333 5.333333zM397.173333 225.173333h64a5.333333 5.333333 0 0 1 5.333334 5.333334v64a5.333333 5.333333 0 0 1-5.333334 5.333333h-64a5.333333 5.333333 0 0 1-5.333333-5.333333v-64a5.333333 5.333333 0 0 1 5.333333-5.333334z m0 124.746667h64a5.333333 5.333333 0 0 1 5.333334 5.333333v64a5.333333 5.333333 0 0 1-5.333334 5.333334h-64a5.333333 5.333333 0 0 1-5.333333-5.333334v-64a5.333333 5.333333 0 0 1 5.333333-5.333333z m0 124.746667h64a5.333333 5.333333 0 0 1 5.333334 5.333333v64a5.333333 5.333333 0 0 1-5.333334 5.333333h-64a5.333333 5.333333 0 0 1-5.333333-5.333333V480a5.333333 5.333333 0 0 1 5.333333-5.333333z m0 124.746666h64a5.333333 5.333333 0 0 1 5.333334 5.333334v64a5.333333 5.333333 0 0 1-5.333334 5.333333h-64a5.333333 5.333333 0 0 1-5.333333-5.333333v-64a5.333333 5.333333 0 0 1 5.333333-5.333334z m0 124.746667h64a5.333333 5.333333 0 0 1 5.333334 5.333333v64a5.333333 5.333333 0 0 1-5.333334 5.333334h-64a5.333333 5.333333 0 0 1-5.333333-5.333334v-64a5.333333 5.333333 0 0 1 5.333333-5.333333zM226.826667 225.173333h64a5.333333 5.333333 0 0 1 5.333333 5.333334v64a5.333333 5.333333 0 0 1-5.333333 5.333333h-64a5.333333 5.333333 0 0 1-5.333334-5.333333v-64a5.333333 5.333333 0 0 1 5.333334-5.333334z m0 124.746667h64a5.333333 5.333333 0 0 1 5.333333 5.333333v64a5.333333 5.333333 0 0 1-5.333333 5.333334h-64a5.333333 5.333333 0 0 1-5.333334-5.333334v-64a5.333333 5.333333 0 0 1 5.333334-5.333333z m0 124.746667h64a5.333333 5.333333 0 0 1 5.333333 5.333333v64a5.333333 5.333333 0 0 1-5.333333 5.333333h-64a5.333333 5.333333 0 0 1-5.333334-5.333333V480a5.333333 5.333333 0 0 1 5.333334-5.333333z m0 124.746666h64a5.333333 5.333333 0 0 1 5.333333 5.333334v64a5.333333 5.333333 0 0 1-5.333333 5.333333h-64a5.333333 5.333333 0 0 1-5.333334-5.333333v-64a5.333333 5.333333 0 0 1 5.333334-5.333334z m0 124.746667h64a5.333333 5.333333 0 0 1 5.333333 5.333333v64a5.333333 5.333333 0 0 1-5.333333 5.333334h-64a5.333333 5.333333 0 0 1-5.333334-5.333334v-64a5.333333 5.333333 0 0 1 5.333334-5.333333zM912 474.666667h-293.333333v74.666666h293.333333a5.333333 5.333333 0 0 0 5.333333-5.333333V480a5.333333 5.333333 0 0 0-5.333333-5.333333zM618.666667 592v320a5.333333 5.333333 0 0 0 5.333333 5.333333h82.666667a5.333333 5.333333 0 0 0 5.333333-5.333333v-153.813333a5.333333 5.333333 0 0 1 5.333333-5.333334h101.333334a5.333333 5.333333 0 0 1 5.333333 5.333334V912a5.333333 5.333333 0 0 0 5.333333 5.333333H912a5.333333 5.333333 0 0 0 5.333333-5.333333v-320a5.333333 5.333333 0 0 0-5.333333-5.333333h-288a5.333333 5.333333 0 0 0-5.333333 5.333333z" p-id="1545"></path></svg>
