<svg t="1707256962364" class="icon" viewBox="0 0 1024 1024" version="1.1" xmlns="http://www.w3.org/2000/svg" p-id="10839" width="200" height="200"><path d="M389.806 546.915H215.222c-48.204 0-87.278 39.074-87.278 87.287v174.575c0 48.21 39.074 87.287 87.278 87.287h174.583c48.197 0 87.27-39.078 87.27-87.287V634.202c0.001-48.213-39.073-87.287-87.269-87.287z m283.223-90.288c26.645 26.647 69.846 26.647 96.474 0l106.109-106.108c26.648-26.63 26.648-69.814 0-96.46L769.504 147.95c-26.628-26.628-69.83-26.628-96.474 0L566.937 254.06c-26.645 26.646-26.645 69.829 0 96.46l106.092 106.108zM606.643 284.88l97.226-97.208c9.753-9.768 25.59-9.768 35.341 0l97.21 97.208c9.769 9.77 9.769 25.591 0 35.36l-97.21 97.208c-9.752 9.752-25.588 9.752-35.34 0l-97.227-97.208c-9.752-9.769-9.752-25.59 0-35.36zM389.806 127.937H215.222c-48.204 0-87.278 39.074-87.278 87.287v174.575c0 48.21 39.074 87.287 87.278 87.287h174.583c48.197 0 87.27-39.076 87.27-87.287V215.224c0.001-48.214-39.073-87.287-87.269-87.287z m418.977 418.978h-174.59c-48.197 0-87.27 39.074-87.27 87.287v174.575c0 48.21 39.074 87.287 87.27 87.287h174.59c48.198 0 87.27-39.078 87.27-87.287V634.202c0-48.213-39.072-87.287-87.27-87.287z" fill="#bfcbd9" p-id="10840"></path></svg>
