<svg t="1707256727663" class="icon" viewBox="0 0 1024 1024" version="1.1" xmlns="http://www.w3.org/2000/svg" p-id="4264" width="200" height="200"><path d="M487.204267 503.765333c119.466667 81.92 169.045333 122.368 184.149333 160.810667 177.194667-57.514667 261.973333-76.928 295.509333-61.397333 67.84 31.488 80.725333 149.248 10.24 211.498666-57.856 51.157333-333.184 182.058667-390.314666 187.52-31.061333 2.986667-87.210667-12.672-177.194667-44.373333-8.96-3.2-18.218667-6.485333-27.733333-9.941333a5166.08 5166.08 0 0 1-60.629334-22.485334l-48.512-18.346666c-40.661333-15.36-115.797333-15.36-222.72 2.176a42.666667 42.666667 0 0 1-13.824-84.181334c120.533333-19.797333 208.554667-19.797333 266.666667 2.133334 3.456 1.322667 36.949333 14.037333 48.469333 18.346666a5084.032 5084.032 0 0 0 86.656 31.786667c73.472 25.898667 128.128 41.173333 140.714667 39.936 38.058667-3.626667 296.917333-126.72 341.930667-166.528 23.253333-20.48 21.418667-57.813333 12.970666-67.968a131.968 131.968 0 0 0-10.453333 1.066667c-14.08 1.92-33.834667 6.101333-58.965333 12.501333-48.085333 12.245333-114.773333 32.341333-199.765334 60.288-15.018667 26.453333-42.794667 45.312-84.010666 48.128-59.904 4.096-165.589333-29.994667-208.213334-61.866667a42.666667 42.666667 0 0 1 51.2-68.309333c26.752 20.053333 112.469333 47.658667 151.210667 45.056 6.229333-0.426667 10.666667-1.834667 13.525333-4.309333a39.68 39.68 0 0 1 4.309334-12.586667c0-2.474667-0.341333-5.290667-0.896-8.490667 0.213333 1.194667-0.554667-0.256-3.370667-3.754666a198.4 198.4 0 0 0-24.874667-24.618667c-24.874667-21.504-64.213333-50.474667-124.330666-91.690667-87.125333-59.733333-133.333333-69.632-161.877334-58.794666-12.288 4.693333-87.04 54.272-209.493333 140.202666a42.666667 42.666667 0 1 1-49.024-69.845333c134.4-94.293333 205.482667-141.482667 228.181333-150.144 57.898667-21.973333 132.181333-5.973333 240.469334 68.181333z" fill="#bfcbd9" p-id="4265"></path><path d="M875.086933 0A64 64 0 0 1 939.086933 64v128A64 64 0 0 1 875.086933 256H853.7536v256a42.666667 42.666667 0 0 1-85.333333 0V256L256.420267 255.957333V341.333333a42.666667 42.666667 0 0 1-85.333334 0V255.957333L149.7536 256a64 64 0 0 1-63.701333-57.856L85.7536 192v-128A64 64 0 0 1 149.7536 0zM171.086933 85.333333v85.333334h682.666667V85.333333H171.086933z" fill="#bfcbd9" p-id="4266"></path></svg>
